<svg width="24" height="24" viewBox="0 0 24 24" fill="none" xmlns="http://www.w3.org/2000/svg">
<g clip-path="url(#clip0_1645_236)">
<path d="M19.4517 3.64414C18.8234 3.25378 17.9888 3.40094 17.5842 3.97343L17.1452 4.59444C14.2154 3.46319 10.786 4.33966 9.01646 6.84311L8.58665 7.45119C7.51213 8.97137 5.86004 10.0583 3.9477 10.5087L3.49525 10.614C2.98214 10.7327 2.60251 11.1253 2.52064 11.6097C2.43877 12.0941 2.67784 12.5871 3.12514 12.865L16.757 21.3337C17.2043 21.6116 17.7782 21.6237 18.2257 21.3664C18.6732 21.1091 18.9073 20.6262 18.824 20.1369L18.7511 19.7052C18.4482 17.8786 18.8697 16.0319 19.9466 14.5085L20.3764 13.9004C22.1459 11.3969 21.6703 8.09453 19.4172 6.0059L19.8561 5.38489C20.2608 4.81239 20.0801 4.0345 19.4517 3.64414ZM9.78197 20.5986C10.4823 20.4751 11.0928 20.0957 11.4815 19.5458L9.20949 18.1344L6.93751 16.7229C6.54885 17.2728 6.41405 17.9477 6.5657 18.6005C6.71735 19.2533 7.14281 19.8295 7.74631 20.2044C8.3498 20.5793 9.08163 20.7221 9.78197 20.5986Z" fill="black" fill-opacity="0.5"/>
</g>
<defs>
<clipPath id="clip0_1645_236">
<rect width="24" height="24" fill="white"/>
</clipPath>
</defs>
</svg>
