<svg width="24" height="24" viewBox="0 0 24 24" fill="none" xmlns="http://www.w3.org/2000/svg">
<path d="M8.60135 4.37818C8.28729 4.47662 8.14198 4.57505 7.88885 4.84693C7.7201 5.02505 7.6076 5.10943 7.52791 5.10943C7.35916 5.10943 6.83885 5.28287 6.5951 5.41412C6.4826 5.47974 6.29041 5.61568 6.17791 5.71412C5.8451 6.00943 1.17166 11.1282 0.946663 11.4516C0.304476 12.3516 -0.051774 13.6032 0.0185385 14.7188C0.079476 15.7641 0.454476 16.7954 1.06385 17.5876C2.98573 20.1001 6.59041 20.3813 8.87323 18.1922C9.86698 17.2407 10.4529 15.8813 10.4529 14.536V14.0626H11.9998H13.5467V14.536C13.5467 17.5454 16.2889 19.9735 19.3029 19.6407C22.5514 19.2844 24.6842 16.1157 23.7842 12.9938C23.6389 12.4922 23.3295 11.8407 23.0529 11.4516C22.8279 11.1282 18.1545 6.00943 17.8217 5.71412C17.7092 5.61568 17.517 5.47974 17.4045 5.41412C17.1607 5.28287 16.6404 5.10943 16.4717 5.10943C16.392 5.10943 16.2748 5.02037 16.0967 4.83287C15.8295 4.54693 15.5435 4.38755 15.2014 4.3313C14.9951 4.29849 14.531 4.37818 14.3295 4.48599C14.081 4.61255 13.8139 4.89849 13.6779 5.17974L13.5467 5.46099V7.32193V9.18755H11.9998H10.4529V7.32193V5.46099L10.3217 5.17974C10.1857 4.89849 9.91854 4.61255 9.6701 4.48599C9.51541 4.4063 9.09354 4.31255 8.91541 4.31724C8.8451 4.31724 8.70448 4.34537 8.60135 4.37818ZM9.32791 5.1188C9.58573 5.25474 9.70291 5.40943 9.73573 5.67662L9.76385 5.87818L9.5576 5.70474C9.34666 5.52193 8.76073 5.20318 8.63885 5.20318C8.52635 5.20318 8.6201 5.11412 8.77948 5.06724C9.01385 5.00162 9.1076 5.0063 9.32791 5.1188ZM15.342 5.11412C15.4217 5.16099 15.4076 5.17505 15.1779 5.2688C14.8685 5.39537 14.6154 5.54537 14.3951 5.74224L14.2357 5.88287L14.2639 5.67662C14.2967 5.40943 14.4139 5.25474 14.6764 5.1188C14.892 5.0063 15.131 5.0063 15.342 5.11412ZM8.46541 5.88287C8.7326 5.96255 9.14041 6.23912 9.32323 6.4688C9.4076 6.57193 9.52948 6.77818 9.59979 6.92818C9.72166 7.18599 9.72635 7.22349 9.74041 8.18443L9.75448 9.17818L9.27635 9.19693C8.82635 9.21568 8.79354 9.22037 8.69041 9.34224C8.5076 9.55787 8.51229 9.57662 9.04666 10.2422C9.27635 10.5235 9.52948 11.0344 9.62323 11.4094C9.66541 11.5594 9.68885 11.6719 9.67948 11.6626C9.6701 11.6579 9.56229 11.5126 9.44041 11.3438C8.16073 9.60006 6.00916 8.85943 3.8201 9.40318C3.68416 9.43599 3.68416 9.4313 3.91385 9.18287C4.0451 9.04224 4.70135 8.32505 5.37635 7.58912C6.05135 6.85318 6.68416 6.19693 6.7826 6.12662C7.2701 5.78912 7.86541 5.70474 8.46541 5.88287ZM16.7998 5.91099C16.9264 5.95787 17.1092 6.05162 17.2123 6.12193C17.3154 6.19693 17.9482 6.85318 18.6232 7.58912C19.2982 8.32505 19.9545 9.04224 20.0857 9.18287C20.3154 9.4313 20.3154 9.43599 20.1795 9.40318C19.3779 9.20162 18.5014 9.16412 17.8123 9.30005C17.3623 9.38912 16.7623 9.59537 16.3967 9.77818C15.731 10.1157 15.0092 10.7297 14.5592 11.3438C14.4373 11.5126 14.3295 11.6579 14.3201 11.6626C14.3107 11.6719 14.3342 11.5641 14.3717 11.4235C14.5076 10.9032 14.7748 10.4063 15.1498 9.9938C15.4029 9.71724 15.4498 9.60005 15.3748 9.42662C15.2998 9.2438 15.1264 9.18755 14.6389 9.18755H14.2451L14.2592 8.18912L14.2732 7.19537L14.4185 6.88599C14.8451 5.99068 15.8764 5.56412 16.7998 5.91099ZM5.83573 9.96568C6.01854 9.97974 6.3326 10.0454 6.53885 10.111C8.03416 10.5797 9.13573 11.6954 9.5951 13.2047C9.7076 13.5797 9.71698 13.6922 9.72166 14.4141C9.72635 15.1126 9.71229 15.2579 9.61854 15.586C9.14041 17.236 7.95916 18.4079 6.34666 18.8251C5.76073 18.9797 4.87479 18.9985 4.28885 18.8719C2.70448 18.5297 1.34979 17.2735 0.899788 15.7266C0.182601 13.2891 1.59823 10.7485 4.04979 10.0782C4.43416 9.97037 5.07635 9.89068 5.34354 9.9188C5.4326 9.92818 5.6576 9.94693 5.83573 9.96568ZM14.2123 10.0407C14.0857 10.2516 13.9451 10.5235 13.8326 10.7954C13.6264 11.2735 13.5748 11.5782 13.5514 12.4688L13.5232 13.336H11.9998H10.4764L10.4482 12.4688C10.4248 11.5782 10.3732 11.2735 10.167 10.7954C10.0545 10.5235 9.91385 10.2516 9.78729 10.0407L9.69354 9.89068H11.9998H14.306L14.2123 10.0407ZM19.3451 9.96099C20.6623 10.0829 22.0123 10.9922 22.7014 12.2204C24.0373 14.5829 23.006 17.5641 20.4842 18.6235C19.9029 18.8672 19.4482 18.9516 18.7264 18.9469C18.2295 18.9469 18.0326 18.9235 17.6529 18.8251C16.0404 18.4079 14.8592 17.236 14.381 15.586C14.2873 15.2579 14.2732 15.1126 14.2779 14.4141C14.2826 13.6922 14.292 13.5797 14.4045 13.2047C14.8685 11.686 15.9795 10.5704 17.4842 10.1063C17.8967 9.97974 18.5435 9.89068 18.867 9.9188C18.9701 9.92818 19.1857 9.94693 19.3451 9.96099Z" fill="black" fill-opacity="0.5"/>
<path d="M4.84198 10.7392C3.33729 10.8845 2.06229 11.9767 1.63104 13.486C1.49511 13.9642 1.48573 14.8688 1.61229 15.3282C1.91698 16.4345 2.61073 17.297 3.58104 17.7657C4.19979 18.0704 4.57011 18.1548 5.24979 18.1548C6.38417 18.1501 7.41542 17.6673 8.11386 16.8142C8.44198 16.411 8.78886 15.6845 8.88729 15.1923C8.99042 14.6579 8.95761 13.847 8.81229 13.3829C8.26386 11.6532 6.62792 10.561 4.84198 10.7392ZM6.14979 11.5548C6.60448 11.7001 6.99354 11.9532 7.38261 12.347C7.97792 12.947 8.24979 13.5985 8.24979 14.4423C8.24979 15.6048 7.61698 16.622 6.55761 17.1563C5.70448 17.5876 4.62636 17.5595 3.74979 17.0767C2.78886 16.547 2.13261 15.3376 2.21698 14.2501C2.27792 13.4767 2.66229 12.6892 3.22011 12.1923C3.51073 11.9345 4.07323 11.6204 4.40604 11.5313C4.92636 11.3907 5.67636 11.4048 6.14979 11.5548Z" fill="black" fill-opacity="0.5"/>
<path d="M4.99174 12.3282C4.87924 12.4501 4.88392 12.6844 4.99642 12.7969C5.04799 12.8485 5.20736 12.9047 5.37611 12.9329C6.15892 13.0547 6.64174 13.5422 6.74955 14.3016C6.80111 14.6485 6.90424 14.7844 7.13392 14.7751C7.4433 14.7657 7.53705 14.4141 7.37767 13.8704C7.20424 13.2891 6.86205 12.8344 6.37924 12.5438C5.87767 12.2391 5.16986 12.1313 4.99174 12.3282Z" fill="black" fill-opacity="0.5"/>
<path d="M18.5154 10.7204C17.006 10.8188 15.6607 11.8923 15.1873 13.3829C15.042 13.847 15.0091 14.6579 15.1123 15.1923C15.2107 15.6845 15.5576 16.411 15.8857 16.8142C16.5841 17.6673 17.6154 18.1501 18.7498 18.1548C19.4295 18.1548 19.7998 18.0704 20.4185 17.7657C21.3888 17.297 22.0826 16.4345 22.3873 15.3282C22.5138 14.8688 22.5045 13.9642 22.3685 13.486C21.8716 11.7517 20.2873 10.6126 18.5154 10.7204ZM19.5982 11.5313C19.7107 11.5642 19.9638 11.672 20.1607 11.7704C21.9607 12.7032 22.3357 15.1079 20.906 16.5517C20.2966 17.1704 19.6123 17.4563 18.7732 17.4517C18.2482 17.4517 17.8451 17.3626 17.442 17.1563C16.3826 16.622 15.7498 15.6048 15.7498 14.4423C15.7498 13.5985 16.0216 12.947 16.617 12.347C17.1701 11.7845 17.7326 11.5079 18.4357 11.4423C18.806 11.4095 19.2795 11.447 19.5982 11.5313Z" fill="black" fill-opacity="0.5"/>
<path d="M18.5152 12.3282C18.3605 12.4829 18.4074 12.7923 18.5949 12.8673C18.6417 12.886 18.8011 12.9188 18.9511 12.9376C19.6636 13.0407 20.1839 13.5751 20.273 14.2969C20.3152 14.6204 20.3574 14.7001 20.5167 14.7563C20.6808 14.8126 20.8308 14.7563 20.9292 14.6063C21.0605 14.4048 20.9433 13.7907 20.6808 13.3266C20.5261 13.0501 20.1183 12.6376 19.8652 12.511C19.3074 12.2251 18.698 12.1454 18.5152 12.3282Z" fill="black" fill-opacity="0.5"/>
</svg>
