<?xml version="1.0" standalone="no"?>
<!DOCTYPE svg PUBLIC "-//W3C//DTD SVG 20010904//EN"
 "http://www.w3.org/TR/2001/REC-SVG-20010904/DTD/svg10.dtd">
<svg version="1.0" xmlns="http://www.w3.org/2000/svg"
 width="512.000000pt" height="512.000000pt" viewBox="0 0 512.000000 512.000000"
 preserveAspectRatio="xMidYMid meet">

<g transform="translate(0.000000,512.000000) scale(0.100000,-0.100000)"
fill="#000000" stroke="none">
<path d="M2400 4917 c-157 -53 -224 -118 -364 -352 l-102 -170 -921 -5 c-912
-5 -922 -5 -950 -26 -15 -11 -36 -36 -45 -55 -17 -32 -18 -135 -18 -1722 0
-1870 -5 -1731 64 -1780 l31 -22 1008 -3 1007 -2 0 -150 0 -149 -397 -3 c-361
-3 -401 -5 -431 -21 -46 -25 -72 -72 -72 -130 0 -54 18 -92 58 -122 27 -20 45
-20 1280 -23 1103 -2 1257 0 1285 13 101 48 104 208 5 262 -30 16 -70 18 -430
21 l-398 3 0 149 0 150 1008 2 1007 3 31 22 c69 49 64 -90 64 1780 0 1624 -1
1690 -19 1723 -10 19 -30 44 -45 55 -27 20 -42 20 -949 25 l-921 5 -102 170
c-141 236 -215 306 -373 355 -89 28 -224 27 -311 -3z m255 -296 c23 -10 53
-33 68 -50 32 -38 1172 -1935 1192 -1986 43 -100 -6 -223 -109 -278 l-41 -22
-1205 0 -1205 0 -41 22 c-103 55 -152 178 -109 278 22 55 1165 1956 1194 1989
58 64 173 85 256 47z m-908 -538 c-203 -328 -812 -1359 -827 -1400 -28 -73
-38 -210 -20 -284 44 -184 171 -326 350 -391 l65 -23 1190 -3 c776 -2 1217 1
1268 7 221 30 394 188 447 410 18 74 8 211 -20 284 -15 41 -624 1072 -827
1400 -2 4 322 7 721 7 l726 0 0 -1205 0 -1205 -2260 0 -2260 0 0 1205 0 1205
726 0 c399 0 723 -3 721 -7z m3073 -2853 l0 -150 -2260 0 -2260 0 0 150 0 150
2260 0 2260 0 0 -150z m-2110 -600 l0 -150 -150 0 -150 0 0 150 0 150 150 0
150 0 0 -150z"/>
<path d="M2492 4074 c-18 -9 -43 -31 -55 -48 -22 -30 -22 -38 -25 -374 -2
-302 -1 -347 14 -377 25 -54 69 -80 134 -80 41 0 63 6 86 22 62 45 64 56 64
423 0 366 -2 379 -63 422 -39 28 -112 34 -155 12z"/>
<path d="M2500 2868 c-84 -43 -110 -119 -70 -199 73 -142 293 -79 277 80 -11
106 -115 166 -207 119z"/>
</g>
</svg>
