<svg width="24" height="24" viewBox="0 0 24 24" fill="none" xmlns="http://www.w3.org/2000/svg">
<path d="M17.3132 5.02689C17.2695 5.04878 16.8537 5.51207 16.3849 6.05562L15.5378 7.04421L15.1346 6.86182C14.4844 6.55904 13.8655 6.36934 13.1403 6.24166C12.5652 6.14317 11.3555 6.15411 10.7522 6.26355C9.1612 6.54809 7.75461 7.28863 6.42303 8.53988C6.00105 8.93386 5.20085 9.87504 4.86014 10.3712C4.4913 10.9147 4.03493 11.7136 4.00993 11.8668C3.97554 12.0857 4.02243 12.2316 4.27874 12.6803C5.02893 14.0045 6.1042 15.2667 7.18571 16.0985C7.36701 16.2371 7.52017 16.3538 7.52642 16.3611C7.5358 16.3684 7.20134 16.7733 6.78874 17.2585C6.14171 18.0137 6.0323 18.1596 6.01355 18.28C5.97917 18.4988 6.02293 18.6703 6.15108 18.8199C6.27924 18.9694 6.42615 19.0205 6.6137 18.9804C6.71997 18.9585 7.32325 18.2654 12.337 12.4213C16.4536 7.61695 17.9478 5.85133 17.9728 5.76013C18.0415 5.51572 17.9665 5.25306 17.7758 5.0889C17.6789 5.005 17.4289 4.97217 17.3132 5.02689ZM13.0622 7.41631C13.5998 7.51115 14.1968 7.69355 14.6688 7.90878L14.7626 7.94891L14.25 8.54718L13.7373 9.14544L13.6529 9.07613C13.4904 8.93751 12.9809 8.67486 12.734 8.5946C12.4026 8.49246 11.6587 8.48151 11.3305 8.57636C10.7585 8.74417 10.3052 9.0433 9.88638 9.52848C9.47066 10.0173 9.21434 10.5499 9.07056 11.2138C8.98616 11.6078 8.99554 12.4323 9.08619 12.8335C9.15808 13.1363 9.36438 13.6872 9.49566 13.9097L9.55818 14.0228L8.92365 14.7633L8.28911 15.5039L7.99216 15.2886C6.95441 14.5262 5.90102 13.3661 5.24773 12.2645L5.08832 11.9945L5.24461 11.7282C5.79787 10.7943 6.76061 9.67075 7.57644 8.99953C8.67671 8.09483 9.97703 7.5221 11.268 7.36524C11.6556 7.31781 12.6683 7.347 13.0622 7.41631ZM12.4433 9.72912C12.6371 9.78749 12.9997 9.96259 12.9997 9.99907C12.9997 10.0027 12.3901 10.7177 11.6431 11.5896L10.2865 13.1728L10.2021 12.9831C10.0896 12.7168 9.99891 12.2863 9.99891 11.9982C10.002 10.5061 11.2305 9.36797 12.4433 9.72912Z" fill="black" fill-opacity="0.5"/>
<path d="M16.9288 8.70398C16.7444 8.91921 16.5943 9.11256 16.5975 9.1308C16.5975 9.15268 16.7194 9.27671 16.8694 9.41169C17.5102 9.98442 18.3542 11.035 18.8105 11.8193L18.9105 11.9945L18.7824 12.2133C18.2448 13.1399 17.3101 14.2452 16.4849 14.9347C15.0721 16.1167 13.4217 16.7186 11.7806 16.6493C11.268 16.631 11.1086 16.6091 10.5835 16.496L10.3053 16.434L9.90206 16.9046C9.61136 17.2439 9.51134 17.3789 9.54259 17.4007C9.63012 17.4591 10.3709 17.6524 10.796 17.7291C11.3806 17.8348 12.5715 17.8421 13.1404 17.7473C15.1565 17.4007 16.8382 16.3866 18.376 14.5882C18.9262 13.9425 19.2856 13.4354 19.6889 12.7313C20.0921 12.0309 20.0921 11.9689 19.7264 11.3159C19.3763 10.6958 18.898 10.0136 18.3917 9.41899C17.9634 8.91557 17.3664 8.31 17.3008 8.31C17.282 8.31 17.1132 8.48511 16.9288 8.70398Z" fill="black" fill-opacity="0.5"/>
<path d="M14.425 11.6261L13.9936 12.1295L13.953 12.4177C13.903 12.7533 13.7248 13.1983 13.5342 13.4646C13.2403 13.8769 12.7902 14.1869 12.362 14.2745L12.1151 14.3219L11.6743 14.8363C11.4336 15.1172 11.2461 15.3579 11.2555 15.3689C11.293 15.4127 11.7712 15.4929 12.0025 15.4966C12.7933 15.5002 13.5217 15.1391 14.1093 14.4569C14.7126 13.7528 14.9783 13.0123 14.9814 12.031C14.9845 11.575 14.9314 11.119 14.8814 11.119C14.8689 11.119 14.6657 11.3452 14.425 11.6261Z" fill="black" fill-opacity="0.5"/>
</svg>
