<?xml version="1.0" standalone="no"?>
<!DOCTYPE svg PUBLIC "-//W3C//DTD SVG 20010904//EN"
 "http://www.w3.org/TR/2001/REC-SVG-20010904/DTD/svg10.dtd">
<svg version="1.0" xmlns="http://www.w3.org/2000/svg"
 width="512.000000pt" height="512.000000pt" viewBox="0 0 512.000000 512.000000"
 preserveAspectRatio="xMidYMid meet">

<g transform="translate(0.000000,512.000000) scale(0.100000,-0.100000)"
fill="#000000" stroke="none">
<path d="M95 4656 c-41 -18 -83 -69 -90 -109 -3 -18 -4 -789 -3 -1714 l3
-1682 21 -28 c12 -15 36 -37 55 -48 33 -20 54 -20 1032 -23 l997 -2 0 -150 0
-150 -395 0 c-427 0 -423 0 -474 -54 -18 -19 -26 -41 -29 -79 -5 -64 13 -105
60 -139 l33 -23 1255 0 1255 0 33 23 c47 34 65 75 60 139 -3 38 -11 60 -29 79
-51 54 -47 54 -474 54 l-395 0 0 150 0 150 976 0 c686 0 988 3 1020 11 52 13
100 62 109 111 3 18 4 790 3 1715 -3 1681 -3 1682 -24 1709 -11 15 -33 37 -48
48 l-27 21 -2447 2 c-2019 2 -2452 0 -2477 -11z m4725 -1491 l0 -1205 -2260 0
-2260 0 0 1205 0 1205 2260 0 2260 0 0 -1205z m0 -1660 l0 -155 -2260 0 -2260
0 0 155 0 155 2260 0 2260 0 0 -155z m-2110 -605 l0 -150 -150 0 -150 0 0 150
0 150 150 0 150 0 0 -150z"/>
<path d="M1764 4059 c-35 -10 -82 -53 -95 -87 -5 -13 -9 -68 -9 -123 0 -86 -2
-100 -17 -105 -10 -4 -46 -19 -79 -34 l-62 -28 -48 50 c-83 86 -120 108 -178
108 -91 0 -148 -56 -148 -145 0 -57 18 -88 95 -164 l65 -63 -28 -62 c-15 -33
-30 -69 -34 -78 -5 -16 -19 -18 -108 -18 -87 0 -108 -3 -138 -21 -44 -27 -57
-44 -71 -93 -14 -53 10 -116 59 -154 33 -25 44 -27 147 -31 l112 -3 13 -42 c7
-22 20 -57 30 -76 l18 -35 -78 -81 c-79 -83 -92 -109 -82 -173 6 -43 57 -99
102 -112 69 -21 105 -6 192 78 l77 76 58 -25 c32 -14 68 -29 81 -33 21 -6 22
-11 22 -114 0 -96 3 -112 23 -142 44 -67 135 -88 197 -46 64 43 74 67 78 186
l4 108 76 31 77 32 65 -64 c101 -99 152 -116 231 -75 42 21 78 80 79 127 0 44
-31 98 -97 164 l-66 66 23 49 c12 26 26 59 30 73 6 24 9 25 117 30 120 5 143
14 187 74 30 40 29 120 -3 165 -35 48 -74 61 -190 61 -95 0 -100 1 -106 23 -4
12 -19 48 -33 80 l-25 58 76 77 c56 58 77 87 82 114 18 98 -47 178 -145 178
-55 0 -73 -10 -155 -91 l-71 -69 -39 20 c-22 11 -57 26 -77 32 l-38 11 0 96
c0 81 -4 104 -22 141 -34 66 -106 99 -174 79z m149 -615 c63 -21 130 -83 164
-152 23 -48 28 -69 27 -132 -1 -89 -25 -149 -86 -209 -62 -62 -119 -86 -208
-86 -97 1 -164 29 -224 96 -54 60 -76 121 -76 208 0 116 58 208 162 260 50 25
74 31 128 31 36 0 87 -7 113 -16z"/>
<path d="M3082 3890 c-42 -26 -76 -99 -68 -144 9 -46 41 -93 78 -113 31 -17
70 -18 523 -18 475 0 491 1 525 20 94 56 98 200 7 255 -31 19 -54 20 -532 20
-484 0 -501 -1 -533 -20z"/>
<path d="M3090 3291 c-50 -26 -84 -96 -75 -151 9 -54 55 -107 106 -120 25 -7
205 -10 516 -8 l478 3 34 24 c43 31 75 100 66 144 -11 49 -42 93 -79 111 -30
14 -95 16 -523 16 -458 0 -490 -1 -523 -19z"/>
<path d="M3105 2696 c-69 -30 -108 -112 -85 -180 14 -44 69 -93 112 -101 18
-3 248 -5 510 -3 463 3 477 4 504 24 50 37 68 70 68 124 0 54 -18 87 -68 124
-27 20 -40 21 -519 23 -394 2 -498 0 -522 -11z"/>
</g>
</svg>
