<svg width="24" height="24" viewBox="0 0 24 24" fill="none" xmlns="http://www.w3.org/2000/svg">
<path d="M12.2332 3.04034C12.0758 3.13001 12.0725 3.16322 12.0693 4.41527C12.0693 5.68725 12.0758 5.73043 12.2461 5.81013C12.4099 5.88652 12.5899 5.83338 12.667 5.68061C12.7281 5.55773 12.7345 3.31267 12.6734 3.1765C12.6027 3.01709 12.3907 2.95067 12.2332 3.04034Z" fill="black" fill-opacity="0.5"/>
<path d="M6.15037 5.57089C6.02827 5.63732 5.95436 5.79341 5.98007 5.92625C6.0122 6.07902 7.44534 7.56023 7.59315 7.59344C7.80523 7.63662 8.01731 7.42075 7.96911 7.20155C7.95304 7.12185 7.76988 6.9093 7.23647 6.35135C6.59381 5.68049 6.40423 5.51444 6.27891 5.51776C6.25641 5.52108 6.19857 5.541 6.15037 5.57089Z" fill="black" fill-opacity="0.5"/>
<path d="M18.3481 5.57096C18.2934 5.59753 17.9303 5.95289 17.5415 6.35806C16.78 7.15181 16.7414 7.20826 16.841 7.40753C16.9149 7.55698 17.0627 7.62672 17.2073 7.58023C17.3744 7.53041 18.769 6.07909 18.7979 5.92632C18.8269 5.79015 18.753 5.63738 18.6244 5.56764C18.5087 5.50454 18.4734 5.50454 18.3481 5.57096Z" fill="black" fill-opacity="0.5"/>
<path d="M11.6869 6.88286C10.3245 7.03231 8.77243 7.7065 7.51281 8.70283C6.82838 9.24084 6.04433 10.0246 5.51092 10.6988C5.13817 11.1704 5 11.3863 5 11.4959C5 11.7483 6.06682 13.0269 6.91192 13.7808C7.64456 14.435 8.3065 14.8967 9.09698 15.2985C10.7036 16.1188 12.2942 16.338 13.9266 15.9594C15.1123 15.6838 16.4105 15.003 17.548 14.0631C18.4349 13.3291 19.7812 11.7815 19.7812 11.4959C19.7812 11.2103 18.4349 9.66262 17.548 8.92866C15.6875 7.38767 13.6374 6.67363 11.6869 6.88286ZM13.0172 7.54376C14.8617 7.75631 16.8057 8.8722 18.316 10.5826C18.7755 11.1007 19.0486 11.456 19.0358 11.5092C19.0165 11.6021 18.4413 12.2863 17.9979 12.7413C17.172 13.5915 16.3269 14.2291 15.3951 14.7041C13.3578 15.7402 11.4234 15.7402 9.38618 14.7007C8.43503 14.2159 7.61885 13.6048 6.78339 12.7413C6.2789 12.2232 5.75513 11.5889 5.75513 11.4959C5.75513 11.4029 6.2789 10.7685 6.78339 10.2505C7.61885 9.38697 8.44146 8.76925 9.38618 8.29101C10.6233 7.66 11.8476 7.41092 13.0172 7.54376Z" fill="black" fill-opacity="0.5"/>
<path d="M11.8733 8.55664C11.5262 8.62306 11.2756 8.72933 11.2113 8.82897C11.1246 8.96513 11.1471 9.13783 11.2692 9.24743C11.3848 9.35702 11.4652 9.35702 11.8122 9.25407C12.8148 8.95849 13.9298 9.48322 14.3957 10.4729C14.7203 11.1571 14.7203 11.8346 14.3957 12.5187C14.0872 13.1696 13.4992 13.6379 12.818 13.7741C12.3167 13.8737 11.8765 13.8073 11.3945 13.5649C11.1406 13.4387 11.0442 13.3656 10.8129 13.1265C10.5847 12.8907 10.5108 12.7877 10.3855 12.5254C10.1831 12.1003 10.1284 11.8047 10.1574 11.2799C10.1766 10.8781 10.1766 10.8781 10.0931 10.7917C9.926 10.6157 9.66572 10.6655 9.57254 10.888C9.48578 11.0873 9.49863 11.891 9.59182 12.2431C9.87459 13.3191 10.6843 14.1361 11.7383 14.4084C12.0693 14.4948 12.7762 14.4848 13.1136 14.3885C14.1322 14.1062 14.9131 13.2958 15.1894 12.2431C15.2473 12.0272 15.2601 11.8877 15.2601 11.4958C15.2601 11.1039 15.2473 10.9644 15.1894 10.7486C14.9131 9.69578 14.1194 8.87546 13.1136 8.60645C12.7762 8.51346 12.2042 8.49022 11.8733 8.55664Z" fill="black" fill-opacity="0.5"/>
<path d="M10.3052 9.54963C10.0256 9.70905 10.1445 10.1674 10.4626 10.1674C10.6265 10.1674 10.7839 10.0046 10.7839 9.83857C10.7839 9.58949 10.5172 9.42675 10.3052 9.54963Z" fill="black" fill-opacity="0.5"/>
<path d="M12.0885 10.2006C11.8861 10.2537 11.5969 10.433 11.4555 10.5891C11.3848 10.6688 11.2788 10.8349 11.2242 10.9578C11.131 11.1604 11.1213 11.2102 11.1213 11.4991C11.1213 11.798 11.1278 11.8279 11.2402 12.067C11.3848 12.3692 11.5712 12.5552 11.87 12.7013C12.0661 12.7977 12.1143 12.8076 12.3906 12.8076C12.6669 12.8076 12.7151 12.7977 12.9112 12.7013C13.21 12.5552 13.3964 12.3692 13.541 12.067C13.6534 11.8279 13.6599 11.798 13.6599 11.4958C13.6599 11.1936 13.6534 11.1637 13.541 10.9246C13.3225 10.4729 12.9369 10.2039 12.4613 10.1806C12.3263 10.174 12.1592 10.1839 12.0885 10.2006ZM12.7441 10.9445C12.9336 11.074 13.0172 11.2401 13.0172 11.4958C13.0172 11.7548 12.9336 11.9176 12.7344 12.0537C12.5545 12.1766 12.2428 12.1833 12.0596 12.0637C11.8154 11.9076 11.7029 11.5987 11.7769 11.3032C11.8218 11.1338 12.0179 10.9146 12.1721 10.8681C12.3424 10.815 12.6059 10.8482 12.7441 10.9445Z" fill="black" fill-opacity="0.5"/>
<path d="M7.51922 15.7668C7.46459 15.7933 7.10149 16.1487 6.71268 16.5539C5.95112 17.3476 5.91256 17.4041 6.01217 17.6033C6.08608 17.7528 6.23389 17.8225 6.37849 17.776C6.54558 17.7262 7.94016 16.2749 7.96908 16.1221C7.998 15.986 7.9241 15.8332 7.79556 15.7634C7.67988 15.7003 7.64454 15.7003 7.51922 15.7668Z" fill="black" fill-opacity="0.5"/>
<path d="M16.9792 15.7667C16.8571 15.8331 16.7832 15.9892 16.8089 16.1221C16.8411 16.2748 18.2742 17.756 18.422 17.7892C18.6341 17.8324 18.8462 17.6165 18.798 17.3974C18.7819 17.3176 18.5987 17.1051 18.0653 16.5472C17.4227 15.8763 17.2331 15.7102 17.1078 15.7136C17.0853 15.7169 17.0274 15.7368 16.9792 15.7667Z" fill="black" fill-opacity="0.5"/>
<path d="M12.2332 17.1882C12.0758 17.2778 12.0725 17.311 12.0693 18.5631C12.0693 19.8351 12.0758 19.8783 12.2461 19.958C12.4099 20.0343 12.5899 19.9812 12.667 19.8284C12.7281 19.7056 12.7345 17.4605 12.6734 17.3243C12.6027 17.1649 12.3907 17.0985 12.2332 17.1882Z" fill="black" fill-opacity="0.5"/>
</svg>
